<?xml version="1.0" standalone="no"?>
<!DOCTYPE svg PUBLIC "-//W3C//DTD SVG 20010904//EN"
 "http://www.w3.org/TR/2001/REC-SVG-20010904/DTD/svg10.dtd">
<svg version="1.0" xmlns="http://www.w3.org/2000/svg"
 width="140.000000pt" height="140.000000pt" viewBox="0 0 140.000000 140.000000"
 preserveAspectRatio="xMidYMid meet">
  <style>
    @media (prefers-color-scheme: dark) {
      .fav {
        filter: inverse(100%);
      }
    }
  </style>
  <g transform="translate(0.000000,140.000000) scale(0.100000,-0.100000)"
  fill="#000000" stroke="none" class="fav">
    <path d="M177 1222 c-34 -4 -56 -48 -106 -208 -36 -112 -50 -232 -51 -412 0
    -137 10 -176 62 -229 l32 -33 638 0 639 0 -3 111 -3 112 -69 19 c-151 41 -290
    123 -391 229 -83 87 -101 114 -170 253 -83 165 -70 159 -339 161 -116 0 -224
    -1 -239 -3z m450 -94 c6 -13 20 -58 33 -100 19 -64 21 -80 10 -93 -11 -13 -51
    -15 -294 -13 l-281 3 -3 23 c-3 20 34 134 60 185 8 15 30 17 237 17 227 0 228
    0 238 -22z m243 -440 c0 -54 -2 -98 -5 -98 -3 0 -23 9 -44 20 -46 23 -51 41
    -51 184 l1 101 49 -55 49 -55 1 -97z m86 25 c33 -28 34 -29 34 -105 0 -43 -2
    -78 -4 -78 -2 0 -20 7 -40 15 l-36 15 0 90 c0 50 2 90 6 90 3 0 21 -12 40 -27z
    m-780 -31 c6 -4 16 -17 23 -29 17 -33 -11 -82 -46 -83 -20 0 -53 38 -53 60 0
    22 33 60 53 60 6 0 17 -4 23 -8z m434 -12 c11 -11 20 -29 20 -40 0 -23 -33
    -60 -55 -60 -22 0 -55 37 -55 60 0 23 33 60 55 60 8 0 24 -9 35 -20z m470 -35
    c26 -13 29 -20 32 -80 3 -71 -3 -78 -57 -53 -23 10 -25 16 -25 80 0 73 4 77
    50 53z m116 -45 c11 0 14 -16 14 -66 0 -56 -2 -65 -16 -60 -9 3 -22 6 -30 6
    -11 0 -14 16 -14 66 0 56 2 65 16 60 9 -3 22 -6 30 -6z m85 -30 c14 -8 19 -21
    19 -55 0 -48 -9 -60 -40 -50 -17 5 -20 15 -20 61 0 56 6 62 41 44z m89 -66 c0
    -52 -1 -55 -22 -52 -20 3 -23 10 -26 56 -3 50 -2 52 22 52 25 0 26 -3 26 -56z"/>
    <path d="M520 278 l0 -28 -120 0 -120 0 0 25 c0 24 -2 25 -75 25 -73 0 -75 -1
    -75 -25 0 -24 -3 -25 -55 -25 l-55 0 0 -43 0 -43 378 1 c247 1 384 5 397 12
    11 6 52 18 91 27 62 14 136 21 432 42 70 6 72 6 72 32 l0 27 -435 0 -435 0 0
    -27z"/>
  </g>
</svg>
